<?xml version="1.0" standalone="no"?>
<!DOCTYPE svg PUBLIC "-//W3C//DTD SVG 20010904//EN"
 "http://www.w3.org/TR/2001/REC-SVG-20010904/DTD/svg10.dtd">
<svg version="1.0" xmlns="http://www.w3.org/2000/svg"
 width="614.000000pt" height="928.000000pt" viewBox="0 0 614.000000 928.000000"
 preserveAspectRatio="xMidYMid meet">

<g transform="translate(0.000000,928.000000) scale(0.100000,-0.100000)"
fill="#000000" stroke="none">
<path id="jar" d="M577 9190 c-107 -41 -152 -158 -99 -256 6 -11 9 -30 6 -41 -4 -14 11
-45 44 -94 95 -142 132 -237 132 -341 0 -98 -16 -131 -159 -339 -113 -164
-140 -213 -275 -484 -109 -219 -151 -323 -168 -415 -6 -36 -9 -1152 -8 -3214
l1 -3160 34 -135 c50 -198 104 -302 214 -411 54 -54 116 -102 166 -132 44 -25
98 -57 120 -71 99 -61 -57 -57 2163 -61 1115 -2 2169 -1 2342 3 l315 7 90 49
c328 177 440 322 520 680 l25 113 0 3131 c0 3428 4 3177 -60 3351 -71 196
-301 620 -435 805 -91 125 -117 190 -116 283 0 110 38 210 130 347 23 33 41
65 41 72 0 7 11 33 25 59 41 78 32 148 -29 208 -28 28 -57 45 -89 54 -37 9
-562 12 -2465 12 -2339 -1 -2419 -2 -2465 -20z m4538 -359 c5 -9 -7 -49 -35
-116 -20 -48 -50 -203 -50 -260 0 -50 22 -165 45 -228 23 -68 57 -126 139
-242 83 -117 117 -171 185 -299 126 -235 181 -348 215 -438 l36 -98 -2 -3142
-3 -3143 -23 -80 c-53 -181 -108 -253 -256 -335 l-71 -40 -2247 0 -2247 0 -55
25 c-65 30 -139 83 -184 133 -43 49 -70 108 -98 221 l-24 94 0 3145 0 3145 36
91 c80 198 264 537 384 706 154 217 197 336 187 519 -6 105 -25 189 -65 288
-16 38 -18 53 -9 57 23 9 4136 6 4142 -3z"/>
<path id="fill-rect" d="M577 9190 h600 v-800 h-600 z" fill="green" />
<!-- The above is just a placeholder rectangle path, you'll update it dynamically -->
</g>
</svg>
